<svg width="300" height="400" xmlns="http://www.w3.org/2000/svg">
  <rect width="300" height="400" fill="#ffffff"/>
  
  <rect width="300" height="3" fill="#1e40af"/>
  <rect width="300" height="3" y="397" fill="#1e40af"/>
  
  <text x="20" y="30" font-size="28" font-weight="bold" fill="#1e40af" font-family="Times New Roman">INVOICE</text>
  
  <line x1="20" y1="45" x2="280" y2="45" stroke="#1e40af" stroke-width="2"/>
  
  <text x="20" y="70" font-size="11" fill="#1f2937">Invoice Number: INV-2025-001</text>
  <text x="20" y="85" font-size="11" fill="#1f2937">Date: December 2, 2025</text>
  <text x="20" y="100" font-size="11" fill="#1f2937">Due Date: December 16, 2025</text>
  
  <line x1="20" y1="115" x2="280" y2="115" stroke="#e5e7eb" stroke-width="1"/>
  
  <text x="20" y="140" font-size="11" font-weight="bold" fill="#1f2937">FROM:</text>
  <text x="20" y="158" font-size="10" fill="#374151">Your Company Name</text>
  <text x="20" y="173" font-size="10" fill="#374151">123 Business Street</text>
  
  <text x="160" y="140" font-size="11" font-weight="bold" fill="#1f2937">BILL TO:</text>
  <text x="160" y="158" font-size="10" fill="#374151">Client Name</text>
  <text x="160" y="173" font-size="10" fill="#374151">client@example.com</text>
  
  <line x1="20" y1="190" x2="280" y2="190" stroke="#1e40af" stroke-width="1"/>
  
  <text x="20" y="210" font-size="10" font-weight="bold" fill="#1f2937">DESCRIPTION</text>
  <text x="160" y="210" font-size="10" font-weight="bold" fill="#1f2937">AMOUNT</text>
  
  <line x1="20" y1="220" x2="280" y2="220" stroke="#e5e7eb" stroke-width="1"/>
  
  <text x="20" y="240" font-size="9" fill="#374151">Services Rendered</text>
  <text x="160" y="240" font-size="9" fill="#374151">$1,000.00</text>
  
  <line x1="20" y1="260" x2="280" y2="260" stroke="#e5e7eb" stroke-width="1"/>
  <line x1="20" y1="262" x2="280" y2="262" stroke="#1e40af" stroke-width="2"/>
  
  <text x="160" y="290" font-size="11" font-weight="bold" fill="#1e40af">TOTAL DUE:</text>
  <text x="280" y="290" font-size="11" font-weight="bold" fill="#1e40af" text-anchor="end">$1,000.00</text>
  
  <line x1="20" y1="310" x2="280" y2="310" stroke="#e5e7eb" stroke-width="1"/>
  
  <text x="20" y="335" font-size="9" fill="#6b7280">Payment Terms: Net 30</text>
  <text x="20" y="350" font-size="8" fill="#9ca3af">Thank you for your business</text>
</svg>
