<svg width="300" height="400" xmlns="http://www.w3.org/2000/svg">
  <defs>
    <linearGradient id="businessGrad" x1="0%" y1="0%" x2="100%" y2="0%">
      <stop offset="0%" style="stop-color:#0f172a;stop-opacity:1" />
      <stop offset="100%" style="stop-color:#1e293b;stop-opacity:1" />
    </linearGradient>
  </defs>
  <rect width="300" height="400" fill="#f8fafc"/>
  
  <rect width="300" height="85" fill="url(#businessGrad)"/>
  <text x="20" y="50" font-size="24" font-weight="bold" fill="#0ea5e9">INVOICE</text>
  <line x1="20" y1="60" x2="150" y2="60" stroke="#0ea5e9" stroke-width="3"/>
  
  <text x="20" y="105" font-size="11" font-weight="bold" fill="#0f172a">INVOICE DETAILS</text>
  <text x="20" y="122" font-size="10" fill="#475569">Number: INV-2025-0001</text>
  <text x="20" y="137" font-size="10" fill="#475569">Date: December 2, 2025</text>
  <text x="20" y="152" font-size="10" fill="#475569">Due: December 16, 2025</text>
  
  <line x1="20" y1="165" x2="280" y2="165" stroke="#e2e8f0" stroke-width="1"/>
  
  <text x="20" y="190" font-size="10" font-weight="bold" fill="#0f172a">FROM</text>
  <text x="20" y="206" font-size="9" fill="#475569">Your Company Inc.</text>
  <text x="20" y="220" font-size="9" fill="#64748b">123 Corporate Blvd</text>
  
  <text x="160" y="190" font-size="10" font-weight="bold" fill="#0f172a">BILL TO</text>
  <text x="160" y="206" font-size="9" fill="#475569">Enterprise Client</text>
  <text x="160" y="220" font-size="9" fill="#64748b">billing@client.com</text>
  
  <line x1="20" y1="235" x2="280" y2="235" stroke="#0ea5e9" stroke-width="2"/>
  
  <text x="20" y="258" font-size="9" font-weight="bold" fill="#0f172a">SERVICE DESCRIPTION</text>
  <text x="200" y="258" font-size="9" font-weight="bold" fill="#0f172a">AMOUNT</text>
  
  <line x1="20" y1="266" x2="280" y2="266" stroke="#e2e8f0" stroke-width="1"/>
  
  <text x="20" y="285" font-size="9" fill="#334155">Professional Consulting Services</text>
  <text x="200" y="285" font-size="9" fill="#334155">$3,500.00</text>
  
  <line x1="20" y1="300" x2="280" y2="300" stroke="#e2e8f0" stroke-width="1"/>
  
  <text x="200" y="320" font-size="10" font-weight="bold" fill="#0f172a" text-anchor="end">TOTAL:</text>
  <text x="270" y="320" font-size="10" font-weight="bold" fill="#0ea5e9" text-anchor="end">$3,500.00</text>
  
  <line x1="20" y1="335" x2="280" y2="335" stroke="#e2e8f0" stroke-width="1"/>
  
  <text x="20" y="360" font-size="8" fill="#64748b">Payment Terms: NET 30 | Tax ID: 12-3456789</text>
  <text x="20" y="373" font-size="8" fill="#94a3b8">Professional business invoice template</text>
</svg>
