<svg width="300" height="400" xmlns="http://www.w3.org/2000/svg">
  <rect width="300" height="400" fill="#ffffff"/>
  
  <text x="20" y="35" font-size="20" font-weight="bold" fill="#000000">INVOICE</text>
  <line x1="20" y1="40" x2="100" y2="40" stroke="#000000" stroke-width="1"/>
  
  <text x="20" y="65" font-size="9" fill="#333333">INV-2025-001</text>
  <text x="20" y="80" font-size="9" fill="#333333">Dec 2, 2025</text>
  
  <line x1="20" y1="95" x2="280" y2="95" stroke="#cccccc" stroke-width="1"/>
  
  <text x="20" y="120" font-size="9" fill="#333333">Bill To: Client Name</text>
  <text x="20" y="135" font-size="9" fill="#666666">client@example.com</text>
  
  <line x1="20" y1="150" x2="280" y2="150" stroke="#cccccc" stroke-width="1"/>
  
  <text x="20" y="172" font-size="8" fill="#333333">DESCRIPTION</text>
  <text x="200" y="172" font-size="8" fill="#333333">AMOUNT</text>
  
  <line x1="20" y1="180" x2="280" y2="180" stroke="#cccccc" stroke-width="1"/>
  
  <text x="20" y="200" font-size="9" fill="#000000">Item Description</text>
  <text x="200" y="200" font-size="9" fill="#000000">$1,200.00</text>
  
  <text x="20" y="220" font-size="9" fill="#000000">Another Service</text>
  <text x="200" y="220" font-size="9" fill="#000000">$800.00</text>
  
  <line x1="20" y1="235" x2="280" y2="235" stroke="#cccccc" stroke-width="1"/>
  
  <line x1="20" y1="237" x2="280" y2="237" stroke="#cccccc" stroke-width="1"/>
  
  <text x="20" y="260" font-size="9" fill="#000000">TOTAL</text>
  <text x="200" y="260" font-size="9" fill="#000000">$2,000.00</text>
  
  <line x1="20" y1="280" x2="280" y2="280" stroke="#cccccc" stroke-width="1"/>
  
  <text x="20" y="305" font-size="8" fill="#666666">Payment terms: Net 30</text>
  <text x="20" y="320" font-size="8" fill="#999999">Thank you</text>
</svg>
